<svg width="18" height="16" viewBox="0 0 18 16" fill="none" xmlns="http://www.w3.org/2000/svg">
<path d="M17.6231 8.90863L11.1942 15.3375C10.9451 15.5906 10.6156 15.7152 10.2861 15.7152C9.95664 15.7152 9.62796 15.5896 9.37724 15.3385C8.87498 14.8362 8.87498 14.0226 9.37724 13.5203L13.6131 9.28633H1.28571C0.575721 9.28633 0 8.71175 0 8.00056C0 7.28936 0.575721 6.71478 1.28571 6.71478H13.6131L9.37804 2.47977C8.87578 1.97751 8.87578 1.16386 9.37804 0.661603C9.88029 0.159348 10.6939 0.159348 11.1962 0.661603L17.6251 7.09047C18.1253 7.59473 18.1253 8.40638 17.6231 8.90863Z" fill="#202020"/>
</svg>
