<svg viewBox="0 0 16 18" fill="none" xmlns="http://www.w3.org/2000/svg">
<path d="M4.5 0C5.12227 0 5.625 0.502734 5.625 1.125V2.25H10.125V1.125C10.125 0.502734 10.6277 0 11.25 0C11.8723 0 12.375 0.502734 12.375 1.125V2.25H14.0625C14.9941 2.25 15.75 3.00586 15.75 3.9375V5.625H0V3.9375C0 3.00586 0.755859 2.25 1.6875 2.25H3.375V1.125C3.375 0.502734 3.87773 0 4.5 0ZM0 6.75H15.75V16.3125C15.75 17.2441 14.9941 18 14.0625 18H1.6875C0.755859 18 0 17.2441 0 16.3125V6.75ZM11.5664 10.7227C11.8969 10.3922 11.8969 9.85781 11.5664 9.53086C11.2359 9.20391 10.7016 9.20039 10.3746 9.53086L7.03477 12.8707L5.38242 11.2184C5.05195 10.8879 4.51758 10.8879 4.19062 11.2184C3.86367 11.5488 3.86016 12.0832 4.19062 12.4102L6.44062 14.6602C6.77109 14.9906 7.30547 14.9906 7.63242 14.6602L11.5664 10.7227Z" fill="white"/>
</svg>
