<svg width="24" height="24" viewBox="0 0 24 24" fill="none" xmlns="http://www.w3.org/2000/svg">
<g id="briefcase-solid 1">
<path id="Vector" d="M9.46875 5.6875H14.5312C14.6859 5.6875 14.8125 5.81406 14.8125 5.96875V7.375H9.1875V5.96875C9.1875 5.81406 9.31406 5.6875 9.46875 5.6875ZM7.5 5.96875V7.375H5.25C4.00898 7.375 3 8.38398 3 9.625V13H9.75H14.25H21V9.625C21 8.38398 19.991 7.375 18.75 7.375H16.5V5.96875C16.5 4.88242 15.6176 4 14.5312 4H9.46875C8.38242 4 7.5 4.88242 7.5 5.96875ZM21 14.125H14.25V15.25C14.25 15.8723 13.7473 16.375 13.125 16.375H10.875C10.2527 16.375 9.75 15.8723 9.75 15.25V14.125H3V18.625C3 19.866 4.00898 20.875 5.25 20.875H18.75C19.991 20.875 21 19.866 21 18.625V14.125Z" fill="#1A1A1A"/>
</g>
</svg>
