<svg width="24" height="24" viewBox="0 0 24 24" fill="none" xmlns="http://www.w3.org/2000/svg">
<g id="comments">
<path id="Exclude" fill-rule="evenodd" clip-rule="evenodd" d="M6.64424 20.8153C6.23088 20.9384 5.89839 21 5.64677 21C5.31129 21 5.09712 20.8934 5.00426 20.6802C4.91141 20.467 4.95184 20.2462 5.12558 20.018C5.23341 19.8679 5.38767 19.6742 5.58836 19.4369C5.78906 19.1997 5.99724 18.9414 6.2129 18.6622C6.42857 18.3829 6.61728 18.1081 6.77903 17.8378C6.81498 17.7718 6.82396 17.7087 6.80599 17.6486C6.78802 17.5886 6.74309 17.5375 6.6712 17.4955C5.75461 17.003 4.96532 16.4129 4.30334 15.7252C3.64136 15.0375 3.13364 14.2808 2.78018 13.455C2.42673 12.6291 2.25 11.7628 2.25 10.8559C2.25 9.76276 2.50161 8.74324 3.00484 7.7973C3.50806 6.85135 4.20599 6.01802 5.09862 5.2973C5.99124 4.57658 7.02615 4.01351 8.20334 3.60811C9.38053 3.2027 10.6461 3 12 3C13.3539 3 14.621 3.2027 15.8012 3.60811C16.9813 4.01351 18.0162 4.57658 18.9059 5.2973C19.7955 6.01802 20.4919 6.85135 20.9952 7.7973C21.4984 8.74324 21.75 9.76276 21.75 10.8559C21.75 11.7327 21.5897 12.5661 21.2692 13.3559C20.9487 14.1456 20.4859 14.8664 19.8809 15.518C19.2758 16.1697 18.5464 16.7327 17.6927 17.2072C16.8391 17.6817 15.8835 18.048 14.8262 18.3063C13.7688 18.5646 12.629 18.6937 11.4069 18.6937C11.353 18.6937 11.2991 18.6922 11.2452 18.6892C11.1912 18.6862 11.1373 18.6847 11.0834 18.6847C11.0235 18.6847 10.9591 18.6967 10.8902 18.7207C10.8213 18.7447 10.7509 18.7808 10.679 18.8288C10.3016 19.0931 9.87926 19.3544 9.41198 19.6126C8.9447 19.8709 8.46993 20.1051 7.98767 20.3153C7.50541 20.5255 7.0576 20.6922 6.64424 20.8153ZM10.1403 7H14.7875C15.1097 7 15.4186 7.12798 15.6464 7.35579C15.8743 7.5836 16.0022 7.89257 16.0022 8.21474V12.8619C16.0022 13.1841 15.8743 13.4931 15.6464 13.7209C15.4186 13.9487 15.1097 14.0767 14.7875 14.0767C14.4653 14.0767 14.1564 13.9487 13.9285 13.7209C13.7007 13.4931 13.5728 13.1841 13.5728 12.8619V11.1457L10.0734 14.645C9.84569 14.8723 9.53707 15 9.21531 15C8.89355 15 8.58493 14.8723 8.35719 14.645C8.2433 14.533 8.15285 14.3995 8.0911 14.2521C8.02936 14.1048 7.99756 13.9467 7.99756 13.7869C7.99756 13.6272 8.02936 13.469 8.0911 13.3217C8.15285 13.1744 8.2433 13.0408 8.35719 12.9288L11.8565 9.42947H10.1403C9.81812 9.42947 9.50915 9.30149 9.28134 9.07369C9.05353 8.84588 8.92555 8.53691 8.92555 8.21474C8.92555 7.89257 9.05353 7.5836 9.28134 7.35579C9.50915 7.12798 9.81812 7 10.1403 7Z" fill="#1A1A1A"/>
</g>
</svg>
