<svg width="20" height="18" viewBox="0 0 20 18" fill="none" xmlns="http://www.w3.org/2000/svg">
<path fill-rule="evenodd" clip-rule="evenodd" d="M4.64424 17.8153C4.23088 17.9384 3.89839 18 3.64677 18C3.31129 18 3.09712 17.8934 3.00426 17.6802C2.91141 17.467 2.95184 17.2462 3.12558 17.018C3.23341 16.8679 3.38767 16.6742 3.58836 16.4369C3.78906 16.1997 3.99724 15.9414 4.2129 15.6622C4.42857 15.3829 4.61728 15.1081 4.77903 14.8378C4.81498 14.7718 4.82396 14.7087 4.80599 14.6486C4.78802 14.5886 4.74309 14.5375 4.6712 14.4955C3.75461 14.003 2.96532 13.4129 2.30334 12.7252C1.64136 12.0375 1.13364 11.2808 0.780184 10.455C0.426728 9.62913 0.25 8.76276 0.25 7.85586C0.25 6.76276 0.501613 5.74324 1.00484 4.7973C1.50806 3.85135 2.20599 3.01802 3.09862 2.2973C3.99124 1.57658 5.02615 1.01351 6.20334 0.608108C7.38053 0.202703 8.64608 0 10 0C11.3539 0 12.621 0.202703 13.8012 0.608108C14.9813 1.01351 16.0162 1.57658 16.9059 2.2973C17.7955 3.01802 18.4919 3.85135 18.9952 4.7973C19.4984 5.74324 19.75 6.76276 19.75 7.85586C19.75 8.73273 19.5897 9.56607 19.2692 10.3559C18.9487 11.1456 18.4859 11.8664 17.8809 12.518C17.2758 13.1697 16.5464 13.7327 15.6927 14.2072C14.8391 14.6817 13.8835 15.048 12.8262 15.3063C11.7688 15.5646 10.629 15.6937 9.40691 15.6937C9.35299 15.6937 9.29908 15.6922 9.24516 15.6892C9.19124 15.6862 9.13733 15.6847 9.08341 15.6847C9.0235 15.6847 8.9591 15.6967 8.89021 15.7207C8.82131 15.7447 8.75092 15.7808 8.67903 15.8288C8.30161 16.0931 7.87926 16.3544 7.41198 16.6126C6.9447 16.8709 6.46993 17.1051 5.98767 17.3153C5.50541 17.5255 5.0576 17.6922 4.64424 17.8153ZM8.14029 4H12.7875C13.1097 4 13.4186 4.12798 13.6464 4.35579C13.8743 4.5836 14.0022 4.89257 14.0022 5.21474V9.86194C14.0022 10.1841 13.8743 10.4931 13.6464 10.7209C13.4186 10.9487 13.1097 11.0767 12.7875 11.0767C12.4653 11.0767 12.1564 10.9487 11.9285 10.7209C11.7007 10.4931 11.5728 10.1841 11.5728 9.86194V8.14571L8.07342 11.645C7.84569 11.8723 7.53707 12 7.21531 12C6.89355 12 6.58493 11.8723 6.35719 11.645C6.2433 11.533 6.15285 11.3995 6.0911 11.2521C6.02936 11.1048 5.99756 10.9467 5.99756 10.7869C5.99756 10.6272 6.02936 10.469 6.0911 10.3217C6.15285 10.1744 6.2433 10.0408 6.35719 9.92881L9.85652 6.42947H8.14029C7.81812 6.42947 7.50915 6.30149 7.28134 6.07369C7.05353 5.84588 6.92555 5.53691 6.92555 5.21474C6.92555 4.89257 7.05353 4.5836 7.28134 4.35579C7.50915 4.12798 7.81812 4 8.14029 4Z" fill="white"/>
</svg>
