<svg width="48" height="48" viewBox="0 0 48 48" fill="none" xmlns="http://www.w3.org/2000/svg">
<rect width="48" height="48" rx="6" fill="white"/>
<path d="M15 18.0003C15 16.897 15.897 16 17.0003 16H22.0012V20.0007C22.0012 20.5539 22.4482 21.0009 23.0014 21.0009H27.0021V24.9297L24.2891 27.6426C23.9672 27.9646 23.7421 28.3646 23.6327 28.8053L23.0483 31.1464C22.9764 31.4339 22.992 31.734 23.0889 32.0059H17.0003C15.897 32.0059 15 31.1089 15 30.0056V18.0003ZM27.0021 20.0007H23.0014V16L27.0021 20.0007ZM32.1842 23.3669L32.6343 23.817C33.1219 24.3046 33.1219 25.0953 32.6343 25.586L31.7154 26.5049L29.4963 24.2858L30.4152 23.3669C30.9028 22.8793 31.6935 22.8793 32.1842 23.3669ZM24.7486 29.0335L28.7868 24.9953L31.0059 27.2144L26.9677 31.2495C26.8396 31.3777 26.6802 31.4683 26.502 31.5121L24.6235 31.9809C24.4516 32.0247 24.2735 31.9746 24.1485 31.8496C24.0234 31.7246 23.9734 31.5464 24.0172 31.3745L24.486 29.4961C24.5298 29.3211 24.6204 29.1585 24.7486 29.0304V29.0335Z" fill="black"/>
</svg>
