<svg width="48" height="48" viewBox="0 0 48 48" fill="none" xmlns="http://www.w3.org/2000/svg">
<rect width="48" height="48" rx="6" fill="white"/>
<path d="M26.4986 16.125H30.9986C31.6209 16.125 32.1236 16.6277 32.1236 17.25C32.1236 17.8723 31.6209 18.375 30.9986 18.375H27.0048C26.822 19.282 26.1998 20.0309 25.3736 20.3895V30.75H30.9986C31.6209 30.75 32.1236 31.2527 32.1236 31.875C32.1236 32.4973 31.6209 33 30.9986 33H24.2486H17.4986C16.8763 33 16.3736 32.4973 16.3736 31.875C16.3736 31.2527 16.8763 30.75 17.4986 30.75H23.1236V20.3895C22.2974 20.0273 21.6752 19.2785 21.4923 18.375H17.4986C16.8763 18.375 16.3736 17.8723 16.3736 17.25C16.3736 16.6277 16.8763 16.125 17.4986 16.125H21.9986C22.5119 15.443 23.3275 15 24.2486 15C25.1697 15 25.9853 15.443 26.4986 16.125ZM28.4533 26.25H33.5439L30.9986 21.8836L28.4533 26.25ZM30.9986 29.625C28.7873 29.625 26.9486 28.4297 26.5689 26.8512C26.4775 26.4645 26.6041 26.0672 26.8045 25.7227L30.1513 19.9852C30.3271 19.6828 30.6506 19.5 30.9986 19.5C31.3466 19.5 31.6701 19.6863 31.8459 19.9852L35.1927 25.7227C35.3931 26.0672 35.5197 26.4645 35.4283 26.8512C35.0486 28.4297 33.2099 29.625 30.9986 29.625ZM17.4564 21.8836L14.9111 26.25H20.0052L17.4564 21.8836ZM13.0302 26.8512C12.9388 26.4645 13.0654 26.0672 13.2658 25.7227L16.6127 19.9852C16.7884 19.6828 17.1119 19.5 17.4599 19.5C17.808 19.5 18.1314 19.6863 18.3072 19.9852L21.6541 25.7227C21.8545 26.0672 21.981 26.4645 21.8896 26.8512C21.5064 28.4297 19.6677 29.625 17.4564 29.625C15.2451 29.625 13.4099 28.4297 13.0302 26.8512Z" fill="black"/>
</svg>
