<svg width="48" height="48" viewBox="0 0 48 48" fill="none" xmlns="http://www.w3.org/2000/svg">
<rect width="48" height="48" rx="6" fill="white"/>
<path d="M16.6875 17C15.7559 17 15 17.7559 15 18.6875C15 19.2184 15.2496 19.7176 15.675 20.0375L23.325 25.775C23.7258 26.0738 24.2742 26.0738 24.675 25.775L32.325 20.0375C32.7504 19.7176 33 19.2184 33 18.6875C33 17.7559 32.2441 17 31.3125 17H16.6875ZM15 20.9375V28.25C15 29.491 16.009 30.5 17.25 30.5H30.75C31.991 30.5 33 29.491 33 28.25V20.9375L25.35 26.675C24.5484 27.2762 23.4516 27.2762 22.65 26.675L15 20.9375Z" fill="black"/>
</svg>
