<svg width="48" height="48" viewBox="0 0 48 48" fill="none" xmlns="http://www.w3.org/2000/svg">
<rect width="48" height="48" rx="6" fill="white"/>
<path d="M24.6029 32.5955C26.4111 30.3326 30.535 24.8481 30.535 21.7675C30.535 18.0313 27.5037 15 23.7675 15C20.0313 15 17 18.0313 17 21.7675C17 24.8481 21.124 30.3326 22.9321 32.5955C23.3657 33.1348 24.1693 33.1348 24.6029 32.5955ZM23.7675 19.5117C24.3658 19.5117 24.9396 19.7493 25.3626 20.1724C25.7857 20.5954 26.0234 21.1692 26.0234 21.7675C26.0234 22.3658 25.7857 22.9396 25.3626 23.3626C24.9396 23.7857 24.3658 24.0234 23.7675 24.0234C23.1692 24.0234 22.5954 23.7857 22.1724 23.3626C21.7493 22.9396 21.5117 22.3658 21.5117 21.7675C21.5117 21.1692 21.7493 20.5954 22.1724 20.1724C22.5954 19.7493 23.1692 19.5117 23.7675 19.5117Z" fill="black"/>
</svg>
