<svg viewBox="0 0 24 24" fill="none" xmlns="http://www.w3.org/2000/svg">
<path d="M8.5 3C9.12227 3 9.625 3.50273 9.625 4.125V5.25H14.125V4.125C14.125 3.50273 14.6277 3 15.25 3C15.8723 3 16.375 3.50273 16.375 4.125V5.25H18.0625C18.9941 5.25 19.75 6.00586 19.75 6.9375V8.625H4V6.9375C4 6.00586 4.75586 5.25 5.6875 5.25H7.375V4.125C7.375 3.50273 7.87773 3 8.5 3ZM4 9.75H19.75V19.3125C19.75 20.2441 18.9941 21 18.0625 21H5.6875C4.75586 21 4 20.2441 4 19.3125V9.75ZM15.5664 13.7227C15.8969 13.3922 15.8969 12.8578 15.5664 12.5309C15.2359 12.2039 14.7016 12.2004 14.3746 12.5309L11.0348 15.8707L9.38242 14.2184C9.05195 13.8879 8.51758 13.8879 8.19062 14.2184C7.86367 14.5488 7.86016 15.0832 8.19062 15.4102L10.4406 17.6602C10.7711 17.9906 11.3055 17.9906 11.6324 17.6602L15.5664 13.7227Z" fill="white"/>
</svg>
