<svg width="48" height="48" viewBox="0 0 48 48" fill="none" xmlns="http://www.w3.org/2000/svg">
<rect width="48" height="48" rx="6" fill="white"/>
<path d="M20.797 15.8656C20.5263 15.2117 19.8127 14.8637 19.1307 15.05L16.0371 15.8937C15.4254 16.0625 15 16.6179 15 17.2507C15 25.948 22.052 33 30.7493 33C31.3821 33 31.9375 32.5746 32.1063 31.9629L32.95 28.8693C33.1363 28.1873 32.7883 27.4737 32.1344 27.203L28.7596 25.7968C28.1865 25.5578 27.5221 25.723 27.1319 26.2046L25.7116 27.9377C23.2367 26.7671 21.2329 24.7633 20.0623 22.2884L21.7954 20.8716C22.277 20.4779 22.4423 19.817 22.2032 19.244L20.797 15.8691V15.8656Z" fill="black"/>
</svg>
